{"title":"Gravity 2013 BRRip 720p x264 AAC - PRiSTiNE [P2PDL]","uid":9580288,"size":581727702,"categoryP":"video","categoryS":"hd___movies","magnet":"?xt=urn:btih:8724396ca08ac02db430ec04b93546bafd00c212&amp;dn=Gravity+2013+BRRip+720p+x264+AAC+-+PRiSTiNE+%5BP2PDL%5D&amp;tr=udp%3A%2F%2Ftracker.openbittorrent.com%3A80&amp;tr=udp%3A%2F%2Fopen.demonii.com%3A1337&amp;tr=udp%3A%2F%2Ftracker.coppersurfer.tk%3A6969&amp;tr=udp%3A%2F%2Fexodus.desync.com%3A6969","seeders":0,"leechers":1,"uploader":"ValidusVyto","files":-1,"time":1391748915,"description":"Gravity.2013.BRRip.720p.x264.AAC-PRiSTiNE\n\n\n\nGenre: Drama | Sci-Fi | Thriller &lt;a href=&quot;\nhttp://www.imdb.com/title/tt1454468/&quot; rel=&quot;nofollow&quot; target=&quot;_NEW&quot;&gt;\nhttp://www.imdb.com/title/tt1454468/&lt;/a&gt;\n\n\nFormat                                   : MPEG-4\nFile size                                : 550 MiB\nDuration                                 : 1h 30mn\nOverall bit rate                         : 845 Kbps\n\nVideo\nFormat                                   : AVC\nBit rate                                 : 760 Kbps\nWidth                                    : 1 280 pixels\nHeight                                   : 528 pixels\nDisplay aspect ratio                     : 2.40:1\nFrame rate                               : 23.976 fps\nBit depth                                : 8 bits\nStream size                              : 494 MiB (90%)\nWriting library                          : x264 core 140 r2377 1ca7bb9\n\nAudio\nFormat                                   : AAC\nBit rate mode                            : Variable\nBit rate                                 : 80.0 Kbps\nChannel(s)                               : 2 channels\nChannel positions                        : Front: L R\nSampling rate                            : 48.0 KHz\nStream size                              : 52.1 MiB (9%)\nLanguage                                 : English\n\nSubtitle                                 : Yes (English)\n &lt;a href=&quot;\nhttp://someimage.com/lhEb77N&quot; rel=&quot;nofollow&quot; target=&quot;_NEW&quot;&gt;\nhttp://someimage.com/lhEb77N&lt;/a&gt; &lt;a href=&quot;\nhttp://someimage.com/jRUTEXD&quot; rel=&quot;nofollow&quot; target=&quot;_NEW&quot;&gt;\nhttp://someimage.com/jRUTEXD&lt;/a&gt; &lt;a href=&quot;\nhttp://someimage.com/Jm29ruF&quot; rel=&quot;nofollow&quot; target=&quot;_NEW&quot;&gt;\nhttp://someimage.com/Jm29ruF&lt;/a&gt; &lt;a href=&quot;\nhttp://someimage.com/yXp7V11&quot; rel=&quot;nofollow&quot; target=&quot;_NEW&quot;&gt;\nhttp://someimage.com/yXp7V11&lt;/a&gt; &lt;a href=&quot;\nhttp://someimage.com/vC0GJuH&quot; rel=&quot;nofollow&quot; target=&quot;_NEW&quot;&gt;\nhttp://someimage.com/vC0GJuH&lt;/a&gt; &lt;a href=&quot;\nhttp://someimage.com/HslQ96z&quot; rel=&quot;nofollow&quot; target=&quot;_NEW&quot;&gt;\nhttp://someimage.com/HslQ96z&lt;/a&gt;\n\n----------------------------------------------------------------------------------------------------\n\n\nRecommend to you to use latest version of VLC player. Install K-Lite Codec Pack or shark007 codecs\nin case of any kind of problem in playback (For non-VLC Media Player users). Alternatively, install\nCore AVC codecs, the fastest decoder that there is coupled with Community Center Codec Pack and play\non Windows Media Player Classic. Check sample to be sure.\nEnjoy!\n\nEncoder Notes:Looking For Early Access To Anything You Can Provide DVDScr, R5, DVDR, BluRay, Direct\nAudio, Music Releases and Seedboxes. We require dedicated servers, so as to do more \nand fast releases of movies.\n\nBitcoins : 16aCJG7J5n8eqCHHLPNUZ3ZirwGU34cqXJ","torrent":{"xt":"urn:btih:8724396ca08ac02db430ec04b93546bafd00c212","amp;dn":"Gravity+2013+BRRip+720p+x264+AAC+-+PRiSTiNE+%5BP2PDL%5D","amp;tr":["udp%3A%2F%2Ftracker.openbittorrent.com%3A80","udp%3A%2F%2Fopen.demonii.com%3A1337","udp%3A%2F%2Ftracker.coppersurfer.tk%3A6969","udp%3A%2F%2Fexodus.desync.com%3A6969"],"infoHash":"8724396ca08ac02db430ec04b93546bafd00c212","infoHashBuffer":{"type":"Buffer","data":[135,36,57,108,160,138,192,45,180,48,236,4,185,53,70,186,253,0,194,18]},"announce":[],"urlList":[]}}